<?xml version="1.0" encoding="utf-8"?>
<!-- Generator: Adobe Illustrator 22.1.0, SVG Export Plug-In . SVG Version: 6.00 Build 0)  -->
<svg version="1.1" id="Layer_1" xmlns="http://www.w3.org/2000/svg" xmlns:xlink="http://www.w3.org/1999/xlink" x="0px" y="0px"
	 viewBox="0 0 521.7 170.7" style="enable-background:new 0 0 521.7 170.7;" xml:space="preserve">
<style type="text/css">
	.st0{fill:#FFFFFF;}
</style>
<g>
	<path d="M521.7,147.6c0,12.7-10.3,23.1-23.1,23.1H23.1C10.3,170.7,0,160.3,0,147.6V23.1C0,10.3,10.3,0,23.1,0h475.6
		c12.7,0,23.1,10.3,23.1,23.1V147.6z"/>
	<g>
		<path class="st0" d="M136,112.8c-2.8,6.1-4.1,8.9-7.6,14.3c-5,7.6-12,17-20.6,17c-7.7,0.1-9.7-5-20.1-5c-10.4,0.1-12.6,5-20.3,5
			C58.7,144,52,135.6,47.1,128c-13.9-21.1-15.3-45.9-6.8-59.1C46.4,59.5,56,54.1,65,54.1c9.2,0,15,5,22.6,5c7.4,0,11.9-5,22.5-5
			c8,0,16.5,4.4,22.6,11.9C112.8,76.9,116,105.2,136,112.8z"/>
		<g>
			<path class="st0" d="M102,45.6c3.9-5,6.8-11.9,5.7-19.1c-6.3,0.4-13.7,4.4-18,9.7c-3.9,4.7-7.1,11.8-5.9,18.6
				C90.7,55,97.8,50.9,102,45.6z"/>
		</g>
	</g>
	<g>
		<g>
			<path class="st0" d="M178.3,68.6l-19.9,58.5h9.1l5.9-18h19.2l6.1,18h9.4l-20-58.5H178.3z M183,78.2c0.7,2.6,1.4,5.3,2.3,8.3
				l5.4,15.5h-15.2l5.3-15.6C181.6,83.8,182.3,81.1,183,78.2z"/>
			<path class="st0" d="M233.9,83.8c-6,0-10.9,2.3-14.1,6.8l-0.4-5.8h-8.1l0,0.7c0.2,3.6,0.3,7.6,0.3,13.3v45.1h8.9v-21
				c2.7,3.3,7.1,5.2,12.1,5.2c5.2,0,9.9-2,13.4-5.7c3.9-4.1,5.9-10,5.9-17c0-6.2-1.8-11.6-5.1-15.5C243.6,85.9,239,83.8,233.9,83.8z
				 M231.7,91.1c7.9,0,11.4,7.3,11.4,14.6c0,9.3-4.5,15.1-11.8,15.1c-5,0-9.2-3.4-10.4-8.2c-0.2-0.8-0.3-1.7-0.3-2.9v-7.1
				c0-0.6,0.1-1.4,0.3-2.2c0-0.2,0.1-0.5,0.1-0.7C222.3,94.6,226.7,91.1,231.7,91.1z"/>
			<path class="st0" d="M279.5,83.8c-6,0-10.9,2.3-14.1,6.8l-0.4-5.8H257l0,0.7c0.2,3.6,0.3,7.6,0.3,13.3v45.1h8.9v-21
				c2.7,3.3,7.1,5.2,12.1,5.2c5.2,0,9.9-2,13.4-5.7c3.9-4.1,5.9-10,5.9-17c0-6.2-1.8-11.6-5.1-15.5
				C289.2,85.9,284.6,83.8,279.5,83.8z M277.3,91.1c7.9,0,11.4,7.3,11.4,14.6c0,9.3-4.5,15.1-11.8,15.1c-4.9,0-9.2-3.4-10.4-8.2
				c-0.2-0.8-0.3-1.7-0.3-2.9v-7.1c0-0.6,0.1-1.4,0.3-2.2c0-0.2,0.1-0.5,0.1-0.7C267.9,94.6,272.3,91.1,277.3,91.1z"/>
			<path class="st0" d="M336.6,93.4c-8.3-3.2-10.9-5.7-10.9-10.4c0-3.9,3.1-7.9,10.1-7.9c5.7,0,9.4,2,10.4,2.6l0.8,0.5l2.5-7.4
				l-0.5-0.3c-1.5-0.9-5.7-2.9-12.9-2.9c-11.3,0-19.2,6.7-19.2,16.2c0,7.7,4.9,13.1,15.5,16.9c7.5,2.8,10.3,5.7,10.3,10.6
				c0,5.6-4.3,9-11.3,9c-4.5,0-9.2-1.3-12.8-3.6l-0.8-0.5l-2.4,7.6l0.4,0.3c3.3,2.2,9.6,3.8,15,3.8c15.2,0,20.6-9.3,20.6-17.2
				C351.5,102.6,347.2,97.6,336.6,93.4z"/>
			<path class="st0" d="M367.4,74.6l-8.7,2.7v7.4h-6.4v7.1h6.4v21.7c0,5.2,1,8.9,3.1,11.2c2,2.2,5,3.4,8.6,3.4
				c3.3,0,5.7-0.7,6.8-1.1l0.5-0.2l-0.4-7.1l-0.8,0.3c-1.1,0.3-2.3,0.5-4.1,0.5c-3.4,0-4.9-2.2-4.9-7.3V91.8h10.7v-7.1h-10.7V74.6z"
				/>
			<path class="st0" d="M400.1,83.8c-12.4,0-21,9.2-21,22.5c0,12.8,8.4,21.8,20.4,21.8h0.1c10.1,0,21-7.1,21-22.6
				c0-6.3-1.9-11.7-5.6-15.7C411.1,85.9,406,83.8,400.1,83.8z M399.8,90.7c8,0,11.6,7.8,11.6,15c0,8.9-4.9,15.3-11.8,15.3h-0.1
				c-6.7,0-11.6-6.3-11.6-15.1C388,98.4,391.6,90.7,399.8,90.7z"/>
			<path class="st0" d="M447.6,84.2l-0.5-0.1c-0.8-0.2-1.4-0.3-2.2-0.3c-4.6,0-8.8,2.7-11.1,7.1l-0.3-6.2h-7.9l0.1,0.7
				c0.2,3.5,0.3,7.4,0.3,12.7l-0.1,28.9h8.9v-22.6c0-1.2,0.1-2.4,0.2-3.4c1-5.4,4.7-8.9,9.3-8.9c0.9,0,1.6,0.1,2.4,0.1l0.9,0.1V84.2
				z"/>
			<path class="st0" d="M467.5,83.7c-11.8,0-20,9.4-20,22.9c0,13,8.2,21.4,20.9,21.4c6.7,0,11.3-1.5,14-2.7l0.5-0.2l-1.7-6.6
				l-0.7,0.3c-2.4,1-5.6,2-11.1,2c-3.8,0-12.7-1.3-13.3-12.8l28.6,0.1l0.1-0.6c0.2-0.9,0.3-2.1,0.3-3.7
				C485.1,94.5,480.5,83.7,467.5,83.7z M466.9,90.4c2.7,0,4.9,0.8,6.5,2.5c2.5,2.6,3,6.4,3,8.2h-20.2
				C457.1,96,460.3,90.4,466.9,90.4z"/>
		</g>
	</g>
</g>
</svg>
