<?xml version="1.0" encoding="utf-8"?>
<!-- Generator: Adobe Illustrator 22.1.0, SVG Export Plug-In . SVG Version: 6.00 Build 0)  -->
<svg version="1.0" id="Ebene_1" xmlns="http://www.w3.org/2000/svg" xmlns:xlink="http://www.w3.org/1999/xlink" x="0px" y="0px"
	 viewBox="0 0 42.4 19" style="enable-background:new 0 0 42.4 19;" xml:space="preserve">
<style type="text/css">
	.st0{fill:#3949AB;}
</style>
<title>music_poprock</title>
<desc>Created with Sketch.</desc>
<g>
	<path class="st0" d="M41.6,8.2l-2.5,3.2L32.5,0.7c0,0,0,0,0-0.1c0,0,0-0.1-0.1-0.1l-0.1-0.1l-0.1-0.1c0,0-0.1,0-0.1-0.1
		c0,0,0,0-0.1,0c0,0-0.1,0-0.1-0.1c0,0,0,0-0.1,0c-0.1,0-0.1-0.1-0.2-0.1c0,0,0,0-0.1,0s-0.1,0-0.2,0h-0.1h-0.1C31,0,31,0,30.9,0
		c0,0,0,0-0.1,0c-0.1,0-0.1,0-0.2,0.1h-0.1h-0.1c-0.1,0-0.1,0.1-0.1,0.1s0,0-0.1,0C30.1,0.3,30,0.4,30,0.5l-6.5,11L21,8.3
		c-0.6-0.8-1.8-0.8-2.3,0.1l-2.9,4.8l-1.3-1.8c-0.6-0.8-1.8-0.8-2.4,0.1L10,14.9l-2.1-3.4c-0.5-0.8-1.8-0.9-2.4-0.1l-1.3,1.7
		L1.4,8.3C1.1,7.8,0.5,7.6,0,7.7v4l0,0l2.9,4.8c0.5,0.8,1.8,0.9,2.4,0.1l1.3-1.8l2.1,3.5C9,18.7,9.5,19,9.9,19
		c0.5,0,0.9-0.2,1.2-0.7l2.1-3.5l1.3,1.8c0.6,0.8,1.8,0.8,2.4-0.1l2.9-4.8l2.5,3.2c0.6,0.8,1.8,0.7,2.3-0.1l6.5-10.7l6.5,10.7
		c0.5,0.8,1.7,0.9,2.3,0.1l2.5-3.2v-4C42.1,7.8,41.8,7.9,41.6,8.2z"/>
</g>
</svg>
