<?xml version="1.0" encoding="utf-8"?>
<!-- Generator: Adobe Illustrator 22.1.0, SVG Export Plug-In . SVG Version: 6.00 Build 0)  -->
<svg version="1.0" id="Ebene_1" xmlns="http://www.w3.org/2000/svg" xmlns:xlink="http://www.w3.org/1999/xlink" x="0px" y="0px"
	 viewBox="0 0 37.1 15.6" style="enable-background:new 0 0 37.1 15.6;" xml:space="preserve">
<style type="text/css">
	.st0{fill:none;}
	.st1{fill:#5E35B1;}
</style>
<title>music_electronic</title>
<desc>Created with Sketch.</desc>
<g>
	<path class="st0" d="M0,8.6h5.3C5.6,8.6,6,8.9,6,9.3v1.4c0,0.4-0.3,0.7-0.7,0.7H0v1.4h37.1v-1.4h-10c-0.4,0-0.7-0.3-0.7-0.7V9.3
		c0-0.4,0.3-0.7,0.7-0.7h10V7.1H0V8.6z M8,9.3c0-0.4,0.3-0.7,0.7-0.7h15.1c0.4,0,0.7,0.3,0.7,0.7v1.4c0,0.4-0.3,0.7-0.7,0.7H8.7
		c-0.4,0-0.7-0.3-0.7-0.7V9.3z"/>
	<path class="st1" d="M10,2.8h13.7c0.4,0,0.7-0.3,0.7-0.7V0.7c0-0.4-0.3-0.7-0.7-0.7H10C9.6,0,9.3,0.3,9.3,0.7v1.4
		C9.3,2.5,9.6,2.8,10,2.8z"/>
	<path class="st1" d="M8.7,11.4h15.1c0.4,0,0.7-0.3,0.7-0.7V9.3c0-0.4-0.3-0.7-0.7-0.7H8.7C8.3,8.6,8,8.9,8,9.3v1.4
		C8,11.1,8.3,11.4,8.7,11.4z"/>
	<path class="st1" d="M26.5,9.3v1.4c0,0.4,0.3,0.7,0.7,0.7h10V8.6h-10C26.8,8.6,26.5,8.9,26.5,9.3z"/>
	<path class="st1" d="M6,10.7V9.3c0-0.4-0.3-0.7-0.7-0.7H0v2.8h5.3C5.6,11.4,6,11.1,6,10.7z"/>
	<rect y="4.3" class="st1" width="37.1" height="2.8"/>
	<rect y="12.8" class="st1" width="37.1" height="2.8"/>
	<path class="st1" d="M28.4,0c-0.4,0-0.7,0.3-0.7,0.7v1.4c0,0.4,0.3,0.7,0.7,0.7h8.7V0H28.4z"/>
	<path class="st1" d="M5.3,2.8C5.7,2.8,6,2.5,6,2.1V0.7C6,0.3,5.7,0,5.3,0H0v2.8H5.3z"/>
</g>
</svg>
