<?xml version="1.0" encoding="utf-8"?>
<!-- Generator: Adobe Illustrator 22.1.0, SVG Export Plug-In . SVG Version: 6.00 Build 0)  -->
<svg version="1.1" id="Ebene_1" xmlns="http://www.w3.org/2000/svg" xmlns:xlink="http://www.w3.org/1999/xlink" x="0px" y="0px"
	 viewBox="0 0 24 23" style="enable-background:new 0 0 24 23;" xml:space="preserve">
<style type="text/css">
	.st0{fill:#D81B60;}
</style>
<title>music_soul</title>
<desc>Created with Sketch.</desc>
<g id="Icons">
	<g id="music_soul" transform="translate(-12.000000, -13.000000)">
		<g transform="translate(12.000000, 13.000000)">
			<path class="st0" d="M2.6,13.2V7.9c0-0.7-0.6-1.3-1.3-1.3C0.6,6.6,0,7.2,0,7.9v5.3c0,0.7,0.6,1.3,1.3,1.3
				C2,14.5,2.6,13.9,2.6,13.2z M6.9,18.6V3.3C6.9,2.6,6.3,2,5.6,2S4.2,2.6,4.2,3.3v15.3c0,0.7,0.6,1.3,1.3,1.3S6.9,19.4,6.9,18.6z
				 M11.1,16.4V7.9c0-0.7-0.6-1.3-1.3-1.3c-0.7,0-1.3,0.6-1.3,1.3v8.5c0,0.7,0.6,1.3,1.3,1.3C10.5,17.7,11.1,17.1,11.1,16.4z
				 M22.6,9.2c-0.7,0-1.3,0.6-1.3,1.3v7.3c0,0.7,0.6,1.3,1.3,1.3c0.7,0,1.3-0.6,1.3-1.3v-7.3C24,9.8,23.4,9.2,22.6,9.2z M18.4,0
				c-0.7,0-1.3,0.6-1.3,1.3v19.9c0,0.7,0.6,1.3,1.3,1.3c0.7,0,1.3-0.6,1.3-1.3V1.3C19.7,0.6,19.1,0,18.4,0z M14.2,19.2
				c0.7,0,1.3-0.6,1.3-1.3V5.2c0-0.7-0.6-1.3-1.3-1.3c-0.7,0-1.3,0.6-1.3,1.3v12.7C12.9,18.6,13.4,19.2,14.2,19.2z"/>
		</g>
	</g>
</g>
</svg>
