<?xml version="1.0" encoding="utf-8"?>
<!-- Generator: Adobe Illustrator 22.1.0, SVG Export Plug-In . SVG Version: 6.00 Build 0)  -->
<svg version="1.1" id="Ebene_1" xmlns="http://www.w3.org/2000/svg" xmlns:xlink="http://www.w3.org/1999/xlink" x="0px" y="0px"
	 viewBox="0 0 24 24" style="enable-background:new 0 0 24 24;" xml:space="preserve">
<style type="text/css">
	.st0{fill:#FFFFFF;}
</style>
<title>navigation_suche</title>
<desc>Created with Sketch.</desc>
<g id="Icons">
	<g id="navigation_suche" transform="translate(-12.000000, -12.000000)">
		<g id="Shape" transform="translate(12.000000, 12.000000)">
			<path class="st0" d="M15.6,2.7c-3.6-3.6-9.4-3.6-13,0c-3.6,3.6-3.6,9.4,0,13c3.2,3.2,8.1,3.5,11.7,1c0.1,0.4,0.2,0.7,0.5,1
				l5.2,5.2c0.8,0.8,2,0.8,2.7,0c0.8-0.8,0.8-2,0-2.7l-5.2-5.2c-0.3-0.3-0.6-0.4-1-0.5C19.2,10.8,18.8,5.9,15.6,2.7L15.6,2.7z
				 M14,14c-2.7,2.7-7,2.7-9.7,0c-2.7-2.7-2.7-7,0-9.7c2.7-2.7,7-2.7,9.7,0C16.7,7,16.7,11.3,14,14L14,14z"/>
		</g>
	</g>
</g>
</svg>
