<?xml version="1.0" encoding="utf-8"?>
<!-- Generator: Adobe Illustrator 22.1.0, SVG Export Plug-In . SVG Version: 6.00 Build 0)  -->
<svg version="1.1" id="Ebene_1" xmlns="http://www.w3.org/2000/svg" xmlns:xlink="http://www.w3.org/1999/xlink" x="0px" y="0px"
	 viewBox="0 0 24 17" style="enable-background:new 0 0 24 17;" xml:space="preserve">
<style type="text/css">
	.st0{fill:#FFFFFF;}
</style>
<title>socialmedia_youtube</title>
<desc>Created with Sketch.</desc>
<g id="Icons">
	<g id="socialmedia_youtube" transform="translate(-12.000000, -15.000000)">
		<g id="youtube" transform="translate(12.000000, 15.000000)">
			<path class="st0" d="M23.1,1.5c-0.9-1-2.5-1.4-5.5-1.4H6.5c-3.1,0-4.8,0.4-5.6,1.5C0,2.7,0,4.3,0,6.4v4.2C0,14.8,1,17,6.5,17
				h11.1c2.6,0,4.1-0.4,5.1-1.3c1-0.9,1.4-2.5,1.4-5.1V6.4C24,4.1,23.9,2.6,23.1,1.5L23.1,1.5z M15.4,9.1l-5,2.6
				c-0.1,0.1-0.2,0.1-0.4,0.1c-0.1,0-0.3,0-0.4-0.1c-0.2-0.1-0.4-0.4-0.4-0.7V5.8c0-0.3,0.1-0.5,0.4-0.7c0.2-0.1,0.5-0.2,0.8,0
				l5,2.6c0.3,0.1,0.4,0.4,0.4,0.7C15.8,8.7,15.7,9,15.4,9.1L15.4,9.1z"/>
		</g>
	</g>
</g>
</svg>
