<?xml version="1.0" encoding="utf-8"?>
<!-- Generator: Adobe Illustrator 22.1.0, SVG Export Plug-In . SVG Version: 6.00 Build 0)  -->
<svg version="1.1" id="Layer_1" xmlns="http://www.w3.org/2000/svg" xmlns:xlink="http://www.w3.org/1999/xlink" x="0px" y="0px"
	 viewBox="0 0 511.5 167.3" style="enable-background:new 0 0 511.5 167.3;" xml:space="preserve">
<style type="text/css">
	.st0{clip-path:url(#SVGID_2_);fill:url(#SVGID_3_);}
	.st1{clip-path:url(#SVGID_2_);fill:url(#SVGID_4_);}
	.st2{clip-path:url(#SVGID_2_);fill:url(#SVGID_5_);}
	.st3{clip-path:url(#SVGID_2_);fill:url(#SVGID_6_);}
	.st4{fill:#F9F9F9;}
</style>
<g>
	<path d="M511.5,144.7c0,12.5-10.1,22.6-22.6,22.6H22.6C10.1,167.3,0,157.2,0,144.7V22.6C0,10.1,10.1,0,22.6,0h466.3
		c12.5,0,22.6,10.1,22.6,22.6V144.7z"/>
	<g id="PLAY_1_">
		<defs>
			<path id="SVGID_1_" d="M110.8,73.6L87.8,60.3c0,0-42-24.3-44.5-25.7s-4.9-0.6-4.9,2.4c0,5,0,51.8,0,51.8s0,50.6,0,52.9
				c0,2.2,1.8,3.2,3.9,2c2.1-1.2,45.5-26.3,45.5-26.3l23.1-13.3c0,0,19.6-11.3,22.2-12.8c2.6-1.5,2.4-3.6,0.2-4.7
				C131,85.4,110.8,73.6,110.8,73.6z"/>
		</defs>
		<clipPath id="SVGID_2_">
			<use xlink:href="#SVGID_1_"  style="overflow:visible;"/>
		</clipPath>
		<linearGradient id="SVGID_3_" gradientUnits="userSpaceOnUse" x1="66.9316" y1="32.211" x2="66.9316" y2="145.5137">
			<stop  offset="0" style="stop-color:#2079B0"/>
			<stop  offset="0.3206" style="stop-color:#4A98B5"/>
			<stop  offset="0.7782" style="stop-color:#81BFBC"/>
			<stop  offset="1" style="stop-color:#97CFBF"/>
		</linearGradient>
		<polygon class="st0" points="38.4,32.2 38.4,88.9 38.4,145.5 95.5,88.9 		"/>
		<linearGradient id="SVGID_4_" gradientUnits="userSpaceOnUse" x1="38.3648" y1="60.3311" x2="110.8443" y2="60.3311">
			<stop  offset="0" style="stop-color:#5ABCAB"/>
			<stop  offset="1" style="stop-color:#E6E99A"/>
		</linearGradient>
		<polygon class="st1" points="110.8,73.6 87.8,60.3 38.4,31.8 38.4,32.2 95.5,88.9 		"/>
		<linearGradient id="SVGID_5_" gradientUnits="userSpaceOnUse" x1="74.604" y1="88.8633" x2="74.604" y2="145.9258">
			<stop  offset="0" style="stop-color:#E53432"/>
			<stop  offset="0.1789" style="stop-color:#D43745"/>
			<stop  offset="0.7321" style="stop-color:#A33E7C"/>
			<stop  offset="1" style="stop-color:#904192"/>
		</linearGradient>
		<polygon class="st2" points="38.4,145.5 38.4,145.9 87.8,117.4 110.8,104.1 95.5,88.9 		"/>
		<linearGradient id="SVGID_6_" gradientUnits="userSpaceOnUse" x1="116.3493" y1="73.6465" x2="116.3493" y2="104.0781">
			<stop  offset="0" style="stop-color:#F18779"/>
			<stop  offset="0.6373" style="stop-color:#F9B575"/>
			<stop  offset="1" style="stop-color:#FDCB73"/>
		</linearGradient>
		<polygon class="st3" points="110.8,73.6 95.5,88.9 110.8,104.1 137.2,88.9 		"/>
	</g>
	<g>
		<path class="st4" d="M398.1,111c-2.1,0-4.1-0.4-5.9-1.2c-1.8-0.8-3.3-2-4.5-3.7h-0.4c0.2,1.9,0.4,3.7,0.4,5.5v13.6h-5V77.5h4.1
			l0.7,4.5h0.2c1.3-1.8,2.8-3.1,4.5-3.9c1.7-0.8,3.7-1.2,5.9-1.2c4.4,0,7.7,1.5,10.1,4.5c2.4,3,3.6,7.2,3.6,12.6
			c0,5.4-1.2,9.6-3.6,12.6C405.7,109.5,402.3,111,398.1,111z M397.3,81.1c-3.4,0-5.8,0.9-7.3,2.8c-1.5,1.9-2.3,4.8-2.3,8.9v1.1
			c0,4.6,0.8,7.9,2.3,9.9c1.5,2,4,3,7.4,3c2.8,0,5.1-1.2,6.7-3.5c1.6-2.3,2.4-5.5,2.4-9.5c0-4.1-0.8-7.3-2.4-9.5
			C402.5,82.2,400.3,81.1,397.3,81.1z"/>
		<path class="st4" d="M423.3,110.4h-5V63.6h5V110.4z"/>
		<path class="st4" d="M452,110.4l-1-4.7h-0.2c-1.6,2.1-3.3,3.5-4.9,4.2c-1.6,0.7-3.7,1.1-6.1,1.1c-3.3,0-5.8-0.8-7.7-2.5
			c-1.9-1.7-2.8-4.1-2.8-7.2c0-6.7,5.3-10.1,16-10.5l5.6-0.2v-2c0-2.6-0.6-4.5-1.7-5.7c-1.1-1.2-2.9-1.8-5.3-1.8
			c-2.7,0-5.9,0.8-9.3,2.5l-1.5-3.8c1.6-0.9,3.4-1.6,5.3-2.1c1.9-0.5,3.9-0.8,5.8-0.8c3.9,0,6.8,0.9,8.7,2.6
			c1.9,1.7,2.8,4.5,2.8,8.4v22.5H452z M440.7,106.9c3.1,0,5.5-0.9,7.3-2.6c1.8-1.7,2.7-4.1,2.7-7.2v-3l-5,0.2
			c-4,0.1-6.8,0.8-8.6,1.9c-1.8,1.1-2.6,2.8-2.6,5.1c0,1.8,0.5,3.2,1.6,4.1C437.2,106.4,438.7,106.9,440.7,106.9z"/>
		<path class="st4" d="M458.6,77.5h5.3l7.2,18.8c1.6,4.3,2.6,7.4,2.9,9.3h0.2c0.3-1,0.8-2.8,1.6-5.2c0.8-2.5,3.6-10.1,8.2-22.8h5.4
			L475.3,115c-1.4,3.7-3,6.3-4.9,7.9c-1.9,1.6-4.2,2.3-6.9,2.3c-1.5,0-3-0.2-4.5-0.5v-4c1.1,0.2,2.3,0.4,3.7,0.4
			c3.4,0,5.9-1.9,7.3-5.8l1.8-4.7L458.6,77.5z"/>
	</g>
	<g>
		<path class="st4" d="M305.6,80.5c1.6,1.3,4.9,4.1,4.9,9.3c0,5.1-2.9,7.5-5.8,9.8c-0.9,0.9-1.9,1.9-1.9,3.4c0,1.5,1,2.3,1.8,3
			l2.5,1.9c3,2.6,5.8,4.9,5.8,9.7c0,6.5-6.3,13-18.1,13c-10,0-14.8-4.8-14.8-9.9c0-2.5,1.2-6,5.3-8.4c4.3-2.6,10.1-3,13.2-3.2
			c-1-1.2-2.1-2.5-2.1-4.7c0-1.2,0.3-1.9,0.7-2.7c-0.8,0.1-1.5,0.1-2.2,0.1c-7.3,0-11.4-5.4-11.4-10.8c0-3.2,1.4-6.7,4.4-9.2
			c3.9-3.2,8.6-3.8,12.3-3.8h14.2l-4.4,2.5H305.6z M300.7,111.1c-0.6-0.1-0.9-0.1-1.6-0.1c-0.6,0-4.3,0.1-7.2,1.1
			c-1.5,0.5-5.9,2.2-5.9,7.1c0,4.9,4.8,8.4,12.1,8.4c6.6,0,10.1-3.2,10.1-7.4C308.2,116.7,306,114.8,300.7,111.1z M302.7,98
			c1.6-1.6,1.7-3.8,1.7-5c0-5-3-12.7-8.7-12.7c-1.8,0-3.7,0.9-4.8,2.3c-1.2,1.4-1.5,3.3-1.5,5.1c0,4.6,2.7,12.3,8.6,12.3
			C299.8,100,301.6,99.1,302.7,98z"/>
		<path class="st4" d="M262.2,110c-10.9,0-16.8-8.5-16.8-16.2c0-9,7.4-16.7,17.8-16.7c10.1,0,16.4,7.9,16.4,16.2
			C279.7,101.4,273.4,110,262.2,110z M270.8,104.4c1.7-2.2,2.1-5,2.1-7.6c0-6.1-2.9-17.6-11.4-17.6c-2.3,0-4.5,0.9-6.2,2.3
			c-2.7,2.4-3.2,5.4-3.2,8.4c0,6.8,3.4,18,11.7,18C266.5,108,269.2,106.6,270.8,104.4z"/>
		<path class="st4" d="M224.9,110c-10.9,0-16.8-8.5-16.8-16.2c0-9,7.4-16.7,17.8-16.7c10.1,0,16.4,7.9,16.4,16.2
			C242.4,101.4,236.1,110,224.9,110z M233.5,104.4c1.7-2.2,2.1-5,2.1-7.6c0-6.1-2.9-17.6-11.4-17.6c-2.3,0-4.5,0.9-6.2,2.3
			c-2.7,2.4-3.2,5.4-3.2,8.4c0,6.8,3.4,18,11.7,18C229.2,108,231.9,106.6,233.5,104.4z"/>
		<path class="st4" d="M202.9,108.9l-9.9,2.3c-4,0.6-7.6,1.2-11.4,1.2c-19.1,0-26.4-14-26.4-25c0-13.4,10.3-25.9,27.9-25.9
			c3.7,0,7.3,0.6,10.6,1.5c5.2,1.5,7.6,3.3,9.1,4.3l-5.7,5.5l-2.4,0.6l1.7-2.8c-2.4-2.3-6.6-6.5-14.8-6.5
			c-10.9,0-19.2,8.3-19.2,20.4c0,13,9.4,25.2,24.5,25.2c4.4,0,6.7-0.9,8.8-1.7V96.8l-10.4,0.6l5.5-3h14.7l-1.8,1.7
			c-0.5,0.4-0.6,0.6-0.7,1.1c-0.1,0.6-0.1,2.6-0.1,3.3V108.9z"/>
		<path class="st4" d="M327.5,106.9c-2.3-0.2-2.8-0.6-2.8-3.3v-0.8V64.5c0-0.1,0-0.3,0-0.4c0.3-2.4,1-2.8,3.1-4.1H318l-5.2,2.5h5.3
			v0l0,0v40.4v2.3c0,1.4-0.3,1.6-1.9,3.7h12.2l2.6-1.5C329.8,107.2,328.7,107.1,327.5,106.9z"/>
		<path class="st4" d="M355.6,107.6c-0.8,0.4-1.5,0.9-2.3,1.2c-2.3,1-4.6,1.3-6.7,1.3c-2.2,0-5.6-0.1-9.1-2.7c-4.9-3.4-7-9.3-7-14.5
			c0-10.6,8.7-15.9,15.7-15.9c2.5,0,5,0.6,7.1,1.9c3.4,2.3,4.3,5.2,4.8,6.8L342,92.3l-5.3,0.4c1.7,8.7,7.6,13.8,14.2,13.8
			c3.5,0,6-1.2,8.4-2.4L355.6,107.6z M349.2,87.1c1.3-0.5,2-0.9,2-1.9c0-2.7-3.1-5.9-6.8-5.9c-2.8,0-7.9,2.1-7.9,9.5
			c0,1.2,0.1,2.4,0.2,3.6L349.2,87.1z"/>
		<g>
			<path class="st4" d="M362.3,77.6v4.5h-0.6v-4.5h-1.5v-0.5h3.5v0.5H362.3z"/>
			<path class="st4" d="M368.4,82.1v-4.6h0l-1.4,4.6h-0.4l-1.4-4.6h0v4.6h-0.5v-5h0.9l1.3,4h0l1.3-4h0.9v5H368.4z"/>
		</g>
	</g>
</g>
</svg>
