<?xml version="1.0" encoding="utf-8"?>
<!-- Generator: Adobe Illustrator 22.1.0, SVG Export Plug-In . SVG Version: 6.00 Build 0)  -->
<svg version="1.0" id="Ebene_1" xmlns="http://www.w3.org/2000/svg" xmlns:xlink="http://www.w3.org/1999/xlink" x="0px" y="0px"
	 viewBox="0 0 17.6 14.8" style="enable-background:new 0 0 17.6 14.8;" xml:space="preserve">
<style type="text/css">
	.st0{fill:#00D79F;}
</style>
<title>music_indie</title>
<desc>Created with Sketch.</desc>
<g>
	<path class="st0" d="M14.8,1.4c-0.7,0.6-1,0.9-1.3,0.9S12.8,2,12.2,1.4C11.5,0.8,10.5,0,9,0S6.4,0.8,5.7,1.4C5,2,4.7,2.3,4.4,2.3
		C4.1,2.3,3.7,2,3.1,1.4C2.4,0.8,1.4,0,0,0v2.1c0.7,0,1.1,0.3,1.7,0.9c0.6,0.6,1.4,1.4,2.7,1.4c1.3,0,2.1-0.9,2.7-1.4
		c0.6-0.6,1-0.9,1.7-0.9S9.9,2.4,10.5,3c0.6,0.6,1.4,1.4,2.7,1.4S15.4,3.5,16,3s1-0.8,1.6-0.9V0C16.4,0.1,15.4,0.9,14.8,1.4z"/>
	<path class="st0" d="M13.5,7.5c-0.3,0-0.7-0.3-1.3-0.9C11.5,6,10.5,5.2,9,5.2S6.4,6,5.7,6.6C5,7.2,4.7,7.5,4.4,7.5
		c-0.3,0-0.7-0.3-1.3-0.9C2.4,6,1.4,5.2,0,5.2v2.1c0.7,0,1.1,0.3,1.7,0.9c0.6,0.6,1.4,1.4,2.7,1.4c1.3,0,2.1-0.9,2.7-1.4
		c0.6-0.6,1-0.9,1.7-0.9s1.1,0.3,1.7,0.9c0.6,0.6,1.4,1.4,2.7,1.4s2.2-0.9,2.8-1.4s1-0.8,1.6-0.9V5.2c-1.2,0.1-2.2,0.9-2.8,1.4
		C14.1,7.2,13.8,7.5,13.5,7.5z"/>
	<path class="st0" d="M13.5,12.7c-0.3,0-0.7-0.3-1.3-0.9c-0.7-0.6-1.7-1.4-3.2-1.4s-2.6,0.8-3.3,1.4s-1,0.9-1.3,0.9
		c-0.3,0-0.7-0.3-1.3-0.9c-0.7-0.6-1.7-1.4-3.1-1.4v2.1c0.7,0,1.1,0.3,1.7,0.9c0.6,0.6,1.4,1.4,2.7,1.4c1.3,0,2.1-0.9,2.7-1.4
		c0.6-0.6,1-0.9,1.7-0.9s1.1,0.3,1.7,0.9c0.6,0.6,1.4,1.4,2.7,1.4s2.2-0.9,2.8-1.4s1-0.8,1.6-0.9v-2.1c-1.2,0.1-2.2,0.9-2.8,1.4
		C14.1,12.4,13.8,12.7,13.5,12.7z"/>
</g>
</svg>
