<?xml version="1.0" encoding="utf-8"?>
<!-- Generator: Adobe Illustrator 22.1.0, SVG Export Plug-In . SVG Version: 6.00 Build 0)  -->
<svg version="1.1" id="Ebene_1" xmlns="http://www.w3.org/2000/svg" xmlns:xlink="http://www.w3.org/1999/xlink" x="0px" y="0px"
	 viewBox="0 0 16.5 17.1" style="enable-background:new 0 0 16.5 17.1;" xml:space="preserve">
<style type="text/css">
	.st0{fill:#FDD835;}
</style>
<title>music_jazz</title>
<desc>Created with Sketch.</desc>
<g>
	<path class="st0" d="M11.4,2.1L11.4,2.1c-1.8,1.7-4.5,1.7-6.3,0C3.7,0.7,1.8,0,0,0v2.7c1.1,0,2.3,0.4,3.2,1.3
		c1.4,1.4,3.2,2.1,5.1,2.1c1.8,0,3.7-0.7,5.1-2.1l0,0c0.9-0.9,2-1.3,3.2-1.3V0C14.7,0,12.8,0.7,11.4,2.1z"/>
	<path class="st0" d="M11.3,13.1c-1.7,1.7-4.5,1.7-6.2,0C3.7,11.7,1.8,11,0,11v2.7c1.1,0,2.3,0.4,3.2,1.3c1.4,1.4,3.2,2.1,5.1,2.1
		c1.8,0,3.7-0.7,5.1-2.1l0,0c0.9-0.9,2-1.3,3.2-1.3V11C14.7,11,12.8,11.7,11.3,13.1C11.4,13.1,11.4,13.1,11.3,13.1z"/>
	<path class="st0" d="M11.3,7.6c-1.7,1.7-4.5,1.7-6.2,0C3.7,6.2,1.8,5.5,0,5.5v2.7c1.1,0,2.3,0.4,3.2,1.3c1.4,1.4,3.2,2.1,5.1,2.1
		c1.8,0,3.7-0.7,5.1-2.1l0,0c0.9-0.9,2-1.3,3.2-1.3V5.5C14.7,5.5,12.8,6.2,11.3,7.6C11.4,7.6,11.4,7.6,11.3,7.6z"/>
</g>
</svg>
