<?xml version="1.0" encoding="utf-8"?>
<!-- Generator: Adobe Illustrator 22.1.0, SVG Export Plug-In . SVG Version: 6.00 Build 0)  -->
<svg version="1.1" id="Ebene_1" xmlns="http://www.w3.org/2000/svg" xmlns:xlink="http://www.w3.org/1999/xlink" x="0px" y="0px"
	 viewBox="0 0 26 25" style="enable-background:new 0 0 26 25;" xml:space="preserve">
<style type="text/css">
	.st0{fill:#FFFFFF;stroke:#FFFFFF;stroke-width:0.5;}
</style>
<title>socialmedia_snapchat</title>
<desc>Created with Sketch.</desc>
<g id="Icons">
	<g id="socialmedia_snapchat" transform="translate(-11.000000, -11.000000)">
		<g id="Shape" transform="translate(12.000000, 12.000000)">
			<path class="st0" d="M12,1.3c3.2,0,5.9,2.7,5.9,5.9c0,0.8,0,1.5,0.1,2.1c0,0.4,0.4,0.7,0.7,0.7c0.1,0,0.1,0,0.2,0l1-0.2H20
				c0.3,0,0.5,0.2,0.5,0.4c0.1,0.4-0.1,0.7-0.5,0.9l-1.5,0.6c-0.4,0.2-0.6,0.6-0.5,1c1.2,4.5,4.7,4.1,4.7,4.7c0,0.7-2.6,0.8-2.8,1.1
				c-0.2,0.2,0,1.4-0.5,1.6c-0.1,0-0.2,0.1-0.4,0.1c-0.4,0-0.9-0.1-1.5-0.1c-0.5,0-1,0.1-1.5,0.3C14.8,21,13.6,22,12.1,22
				s-2.7-1.1-3.9-1.6c-0.5-0.2-1-0.3-1.5-0.3C6,19.9,5.4,20,5,20c-0.2,0-0.3,0-0.4-0.1c-0.5-0.2-0.3-1.4-0.5-1.6
				c-0.2-0.2-2.8-0.3-2.8-1.1c0-0.6,3.4-0.1,4.7-4.7c0.1-0.4-0.1-0.8-0.5-1L3.9,11c-0.4-0.1-0.6-0.5-0.5-0.9C3.5,9.9,3.7,9.7,4,9.7
				h0.1l1,0.2c0.1,0,0.1,0,0.2,0C5.7,10,6,9.7,6,9.3C6,8.7,6.1,8,6.1,7.2C6.1,4,8.8,1.3,12,1.3L12,1.3z M12,0L12,0L12,0
				c-1,0-1.9,0.2-2.8,0.6C8.3,1,7.6,1.5,6.9,2.2C6.3,2.8,5.7,3.6,5.4,4.4C5,5.3,4.8,6.3,4.8,7.2c0,0.5,0,0.9,0,1.4L4.4,8.5
				c-0.1,0-0.3,0-0.4,0c-0.4,0-0.8,0.1-1.1,0.4c-0.3,0.3-0.6,0.6-0.7,1c-0.2,1,0.3,2,1.3,2.3l1.1,0.5c-0.7,2.3-2.1,2.7-3,3
				c-0.2,0.1-0.5,0.1-0.7,0.2C0.1,16.3,0,17,0,17.3c0,0.5,0.2,1,0.7,1.3c0.2,0.2,0.5,0.3,0.8,0.4c0.5,0.2,1,0.3,1.5,0.3
				c0,0.2,0.1,0.3,0.1,0.5c0.2,0.7,0.7,1.1,1,1.2s0.7,0.2,0.9,0.2c0.2,0,0.5,0,0.7,0c0.3,0,0.5,0,0.8,0c0.4,0,0.7,0.1,1,0.2
				s0.6,0.3,1,0.5c1,0.6,2.1,1.2,3.5,1.2s2.5-0.6,3.5-1.2c0.3-0.2,0.7-0.4,1-0.5c0.2-0.1,0.5-0.2,1-0.2c0.3,0,0.6,0,0.8,0
				c0.3,0,0.5,0,0.7,0s0.6,0,0.9-0.2c0.3-0.1,0.8-0.5,1-1.2c0.1-0.2,0.1-0.4,0.1-0.5c0.4-0.1,1-0.2,1.5-0.3c0.3-0.1,0.6-0.3,0.8-0.4
				c0.4-0.3,0.7-0.8,0.7-1.3c0-0.3-0.1-0.9-0.9-1.3c-0.2-0.1-0.4-0.2-0.7-0.2c-0.9-0.3-2.3-0.7-3-3l1.1-0.5c0.9-0.4,1.5-1.3,1.3-2.3
				c-0.1-0.4-0.3-0.8-0.7-1c-0.3-0.3-0.7-0.4-1.1-0.4c-0.1,0-0.3,0-0.4,0l-0.4,0.1c0-0.4,0-0.9,0-1.4c0-1-0.2-1.9-0.6-2.8
				s-0.9-1.6-1.5-2.3c-0.7-0.7-1.4-1.2-2.3-1.5C13.9,0.2,12.9,0,12,0L12,0L12,0z"/>
		</g>
	</g>
</g>
</svg>
