<?xml version="1.0" encoding="utf-8"?>
<!-- Generator: Adobe Illustrator 22.1.0, SVG Export Plug-In . SVG Version: 6.00 Build 0)  -->
<svg version="1.1" id="Ebene_1" xmlns="http://www.w3.org/2000/svg" xmlns:xlink="http://www.w3.org/1999/xlink" x="0px" y="0px"
	 viewBox="0 0 24 20" style="enable-background:new 0 0 24 20;" xml:space="preserve">
<style type="text/css">
	.st0{fill:#767676;}
</style>
<title>socialmedia_twitter</title>
<desc>Created with Sketch.</desc>
<g id="Icons">
	<g id="socialmedia_twitter" transform="translate(-12.000000, -14.000000)">
		<g id="Shape" transform="translate(12.000000, 14.000000)">
			<path class="st0" d="M24,2.3c-0.9,0.4-1.9,0.7-2.8,0.8c1.1-0.6,1.8-1.5,2.2-2.7c-1,0.6-2,1-3.1,1.2c-1-1-2.2-1.5-3.6-1.5
				c-1.4,0-2.5,0.5-3.5,1.4c-1,1-1.4,2.1-1.4,3.5c0,0.4,0,0.7,0.1,1.1C9.8,5.9,8,5.4,6.2,4.5C4.4,3.6,2.9,2.4,1.7,0.9
				C1.3,1.7,1.1,2.5,1.1,3.4c0,0.8,0.2,1.6,0.6,2.3C2,6.4,2.6,7,3.2,7.5C2.5,7.4,1.7,7.2,1,6.9v0.1C1,8.1,1.4,9.1,2.1,10
				c0.7,0.9,1.7,1.5,2.8,1.7c-0.4,0.1-0.9,0.2-1.3,0.2c-0.3,0-0.6,0-0.9-0.1c0.3,1,0.9,1.8,1.7,2.4c0.8,0.6,1.8,1,2.9,1
				c-1.8,1.4-3.8,2.1-6.1,2.1c-0.4,0-0.8,0-1.2-0.1c2.3,1.5,4.8,2.2,7.5,2.2c1.7,0,3.4-0.3,4.9-0.8c1.5-0.6,2.8-1.3,3.9-2.2
				c1.1-0.9,2-2,2.8-3.2C20,12,20.6,10.8,21,9.4c0.4-1.3,0.6-2.6,0.6-3.9c0-0.3,0-0.5,0-0.6C22.5,4.2,23.3,3.3,24,2.3L24,2.3z"/>
		</g>
	</g>
</g>
</svg>
